<svg height="54" viewBox="0 0 637.00003 53.999999" width="637.00006" xmlns="http://www.w3.org/2000/svg">
  <path d="m175.93 61.27h38.51v-9.1h-29.24v-10.08h25.48v-8.48h-25.48v-9.82h29.24v-9.27h-38.51z" transform="matrix(1.1235955 0 0 1.1235955 -15.921348 -15.921349)"/>
  <path d="m52.98 61.23h9.27v-46.71h-9.27v18.7h-29.54v-18.7h-9.27v46.71h9.27v-18.7h29.54z" transform="matrix(1.1235955 0 0 1.1235955 -15.921348 -15.921349)"/>
  <path d="m280.69 61.27h38.34v-9.1h-29.07v-37.65h-9.27z" transform="matrix(1.1235955 0 0 1.1235955 -15.921348 -15.921349)"/>
  <path d="m373.74157 0c-15.52809 0-27.23595 11.606742-27.23595 27 0 7.449438 2.74157 14.280899 7.73034 19.258427 5.01123 4.988764 11.93258 7.741573 19.50561 7.741573 15.5281 0 27.23596-11.606742 27.23596-27s-11.70786-27-27.23596-27zm16.34832 27c0 10.089888-6.58427 16.393258-16.34832 16.393258-9.7528 0-16.34831-6.30337-16.34831-16.393258 0-10.089888 6.59551-16.393258 16.34831-16.393258 9.76405 0 16.34832 6.30337 16.34832 16.393258z" stroke-width="1.123595"/>
  <path d="m434.47191 0c-15.52809 0-27.23595 11.606742-27.23595 27 0 7.449438 2.74157 14.280899 7.73033 19.258427 5.01124 4.988764 11.93258 7.741573 19.50562 7.741573 15.52809 0 27.23596-11.606742 27.23596-27s-11.70787-27-27.23596-27zm16.33708 27c0 10.089888-6.58427 16.393258-16.34832 16.393258-9.7528 0-16.34831-6.30337-16.34831-16.393258 0-10.089888 6.59551-16.393258 16.34831-16.393258 9.76405 0 16.34832 6.30337 16.34832 16.393258z" stroke-width="1.123595"/>
  <path d="m500.32584.393258c-3.88764 0-30.34831 0-30.34831 0v52.52809h10.41573v-15.617977h19.93258c13.11236-.07865 19.04495-9.674158 19.02248-18.550562-.0225-8.842697-5.97753-18.359551-19.02248-18.359551zm8.30337 18.471911c0 2.123595-.70786 4.101123-1.98876 5.561797-1.4382 1.64045-3.44944 2.426967-5.98876 2.494382h-20.2472v-16.112359h20.2472c2.53932.07865 4.55056.865168 5.98876 2.494382 1.2809 1.460674 1.98876 3.438202 1.98876 5.561798z" stroke-width="1.123595"/>
  <path d="m154.34831.393258c-3.88763 0-30.34831 0-30.34831 0v52.52809h10.41573v-15.617977h19.93258c13.11236-.07865 19.04495-9.674158 19.02248-18.550562-.0225-8.842697-5.98877-18.359551-19.02248-18.359551zm8.30337 18.471911c0 2.123595-.70786 4.101123-1.98876 5.561797-1.4382 1.64045-3.44944 2.426967-5.98877 2.494382h-20.24718v-16.112359h20.24718c2.53933.07865 4.55057.865168 5.98877 2.494382 1.2809 1.460674 1.98876 3.438202 1.98876 5.561798z" stroke-width="1.123595"/>
  <path d="m118.95 14.52-20.82 32.03v14.67h-9.45v-14.67l-20.83-32.03h11.36l14.19 22.54 14.2-22.54z" transform="matrix(1.1235955 0 0 1.1235955 -15.921348 -15.921349)"/>
  <g stroke-width="1.123595">
    <path d="m545.9101 19.179775h10.415731v33.730339h-10.415731z" fill="#ff0026"/>
    <path d="m277.41573 42.696629c-1.25843 0-2.42697-.651685-3.10112-1.719101l-2.77529-4.426966c9.07866-2.41573 13.2472-10.359551 13.22472-17.808989-.0225-8.842696-5.98876-18.359551-19.02247-18.359551-3.88764 0-30.34831 0-30.34831 0v52.528091h10.41573v-15.887641h13.60674l5.40449 8.662921c2.23596 3.516854 3.97753 7.213483 11.23596 7.213483h15.06742v-10.202247zm-11.34831-15.764045h-20.24719v-16.123595h20.24719c2.53932.07865 4.55056.865168 5.98876 2.494382 1.2809 1.460674 1.98877 3.438202 1.98877 5.561798 0 2.123595-.70787 4.101123-1.98877 5.561797-1.4382 1.64045-3.44944 2.426967-5.98876 2.505618z"/>
    <path d="m525.53937.393259h51.494385v10.415731h-51.494385z" fill="#ff0026"/>
    <path d="m605.87646 19.179775h10.415731v33.730339h-10.415731z" fill="#ff0026"/>
    <path d="m585.50568.393259h51.494385v10.415731h-51.494385z" fill="#ff0026"/>
  </g>
</svg>
